<?xml version="1.0" encoding="UTF-8"?>
<svg version="1.1" xmlns="http://www.w3.org/2000/svg" width="256" height="256">
<path d="M0 0 C1.70309866 1.16501822 3.39276347 2.35015004 5.0625 3.5625 C5.95582031 4.19671875 5.95582031 4.19671875 6.8671875 4.84375 C16.41918673 12.16859915 23.0750513 24.85518503 25.0625 36.5625 C26.68093779 54.40866674 23.71043942 69.60477847 12.21875 83.84765625 C6.26855701 90.17583282 -1.14132612 94.81013593 -8.9375 98.5625 C-6.36831545 103.99093833 -4.00609259 107.82048138 1.80859375 109.90625 C3.91190549 110.39962556 6.02254652 110.81694044 8.14208984 111.234375 C16.93004744 113.00302055 21.78816763 117.33418164 26.8125 124.5703125 C30.9414568 131.1508374 33.19317223 139.11886032 31.578125 146.89453125 C31.40796875 147.44496094 31.2378125 147.99539062 31.0625 148.5625 C31.97128906 148.47548828 31.97128906 148.47548828 32.8984375 148.38671875 C40.0061778 148.00399427 45.24729291 149.37875376 51.0625 153.5625 C57.45645658 160.22881578 58.48137744 165.92986019 58.40625 175.0390625 C57.78090708 181.44882745 54.72952143 185.242017 50.0625 189.4375 C44.5953558 193.31006047 40.08419156 193.86340237 33.48364258 193.86889648 C32.63090759 193.87722 31.77817261 193.88554352 30.89959717 193.89411926 C28.08536178 193.91817837 25.27135853 193.9269876 22.45703125 193.93359375 C20.49273105 193.94256516 18.52843153 193.9516871 16.56413269 193.96095276 C12.4459772 193.9774356 8.32790291 193.98514125 4.2097168 193.98803711 C-1.04810847 193.99341155 -6.30516206 194.03105601 -11.56276989 194.07678127 C-15.6216149 194.10663896 -19.68027633 194.1137626 -23.73922157 194.11476326 C-25.67637976 194.11895043 -27.61353926 194.13132388 -29.55058861 194.15228081 C-50.72841229 194.36311338 -50.72841229 194.36311338 -59.05143738 186.58763123 C-65.20970199 180.17079051 -67.0902721 175.10930809 -67.00390625 166.3203125 C-66.98952515 164.42369873 -66.98952515 164.42369873 -66.97485352 162.48876953 C-66.96252686 161.52310059 -66.9502002 160.55743164 -66.9375 159.5625 C-68.12829666 159.57138245 -69.31909332 159.58026489 -70.54597473 159.5894165 C-81.8003455 159.67071027 -93.05465624 159.73056505 -104.30925465 159.76974869 C-110.0945598 159.79057103 -115.8796268 159.81879078 -121.66479492 159.86425781 C-127.25395213 159.90790652 -132.84288109 159.93167732 -138.43219566 159.94200897 C-140.55832191 159.94936626 -142.6844365 159.96373292 -144.81046486 159.98542023 C-160.92207315 160.14314845 -173.75396607 158.99101604 -186.09765625 147.5625 C-196.32512397 136.85711323 -198.4334914 125.54341447 -198.21484375 111.3515625 C-197.84146801 101.8295523 -194.14450641 94.62616346 -187.9375 87.5625 C-187.43605469 86.95664063 -186.93460938 86.35078125 -186.41796875 85.7265625 C-179.07588722 77.54487554 -168.24553531 73.03038022 -157.37109375 72.41796875 C-152.78495041 72.34278607 -148.44167306 72.61425304 -143.9375 73.5625 C-143.8446875 71.70625 -143.8446875 71.70625 -143.75 69.8125 C-142.38333845 57.75930435 -135.76589152 47.5696458 -126.9375 39.5625 C-126.33679688 39.00691406 -125.73609375 38.45132813 -125.1171875 37.87890625 C-114.69443314 28.93687529 -101.6932415 26.01092351 -88.1953125 26.703125 C-82.57979249 27.24135375 -82.57979249 27.24135375 -79.9375 28.5625 C-79.82535156 27.83546875 -79.71320313 27.1084375 -79.59765625 26.359375 C-77.14061076 15.9496438 -68.27059226 6.53835949 -59.625 0.75 C-41.34394741 -10.22372377 -18.37411387 -11.28062219 0 0 Z " fill="#D8ECFD" transform="translate(197.9375,51.4375)"/>
<path d="M0 0 C11.61232494 2.5172687 20.00939853 5.72990595 26.9609375 15.71484375 C30.94512931 22.31479674 33.08640037 30.35764047 31.47265625 38.0390625 C31.30378906 38.59207031 31.13492188 39.14507812 30.9609375 39.71484375 C31.56679687 39.65683594 32.17265625 39.59882813 32.796875 39.5390625 C39.9046153 39.15633802 45.14573041 40.53109751 50.9609375 44.71484375 C57.35489408 51.38115953 58.37981494 57.08220394 58.3046875 66.19140625 C57.67934458 72.6011712 54.62795893 76.39436075 49.9609375 80.58984375 C44.4937933 84.46240422 39.98262906 85.01574612 33.38208008 85.02124023 C32.52934509 85.02956375 31.67661011 85.03788727 30.79803467 85.04646301 C27.98379928 85.07052212 25.16979603 85.07933135 22.35546875 85.0859375 C20.39116855 85.09490891 18.42686903 85.10403085 16.46257019 85.11329651 C12.3444147 85.12977935 8.22634041 85.137485 4.1081543 85.14038086 C-1.14967097 85.1457553 -6.40672456 85.18339976 -11.66433239 85.22912502 C-15.7231774 85.25898271 -19.78183883 85.26610635 -23.84078407 85.26710701 C-25.77794226 85.27129418 -27.71510176 85.28366763 -29.65215111 85.30462456 C-50.82997479 85.51545713 -50.82997479 85.51545713 -59.15299988 77.73997498 C-65.14086294 71.5006907 -67.18800594 66.26882405 -67.4140625 57.71484375 C-67.23504611 51.20828658 -67.04057886 46.69686975 -62.234375 41.921875 C-60.85473445 40.70102327 -59.44780792 39.51032868 -58.015625 38.3515625 C-55.84016442 36.63451937 -55.84016442 36.63451937 -53.5390625 33.90234375 C-47.78001335 28.86317574 -40.28017593 29.4477535 -33.0390625 29.71484375 C-32.9359375 28.86921875 -32.8328125 28.02359375 -32.7265625 27.15234375 C-31.22145648 19.62681365 -28.91876842 16.10612553 -22.9765625 11.390625 C-20.94488187 9.76847104 -20.94488187 9.76847104 -19.4765625 7.5078125 C-19.0021875 6.91613281 -18.5278125 6.32445312 -18.0390625 5.71484375 C-17.0490625 5.71484375 -16.0590625 5.71484375 -15.0390625 5.71484375 C-15.0390625 5.05484375 -15.0390625 4.39484375 -15.0390625 3.71484375 C-14.42417969 3.59367188 -13.80929688 3.4725 -13.17578125 3.34765625 C-12.36753906 3.18007812 -11.55929688 3.0125 -10.7265625 2.83984375 C-9.92605469 2.67742187 -9.12554687 2.515 -8.30078125 2.34765625 C-4.84673432 1.38123897 -3.75965148 -0.35276935 0 0 Z " fill="#D2E9FD" transform="translate(198.0390625,160.28515625)"/>
<path d="M0 0 C1.70309866 1.16501822 3.39276347 2.35015004 5.0625 3.5625 C5.95582031 4.19671875 5.95582031 4.19671875 6.8671875 4.84375 C16.41918673 12.16859915 23.0750513 24.85518503 25.0625 36.5625 C26.68093779 54.40866674 23.71043942 69.60477847 12.21875 83.84765625 C6.1402601 90.31227973 -2.12808146 96.68963149 -10.9375 98.5625 C-13.5 97.515625 -13.5 97.515625 -15.9375 95.8125 C-22.26038017 91.4756527 -27.80350197 90.2633878 -35.3125 89.9375 C-36.04855469 89.89882812 -36.78460938 89.86015625 -37.54296875 89.8203125 C-39.34077406 89.72692002 -41.13910108 89.6436629 -42.9375 89.5625 C-42.89109375 88.34175781 -42.8446875 87.12101562 -42.796875 85.86328125 C-42.40874436 71.32023339 -44.3948963 59.7201098 -52.9375 47.5625 C-53.37707031 46.92699219 -53.81664062 46.29148438 -54.26953125 45.63671875 C-60.60140631 37.40710592 -70.34971222 32.91094649 -79.9375 29.5625 C-79.42635858 19.85081309 -71.77839104 10.92997298 -64.9375 4.5625 C-46.21600682 -9.83427135 -20.38776006 -12.51688218 0 0 Z " fill="#FCD46F" transform="translate(197.9375,51.4375)"/>
<path d="M0 0 C0.33 0 0.66 0 1 0 C2.09374076 12.03114838 -4.48852619 24.16904199 -11.84375 33.28515625 C-18.08028172 39.91786109 -26.10039882 45.72565748 -35 48 C-37.375 46.625 -37.375 46.625 -39 45 C-38.34 43.35 -37.68 41.7 -37 40 C-36.34 40 -35.68 40 -35 40 C-34.73960937 39.40058594 -34.47921875 38.80117187 -34.2109375 38.18359375 C-32.90735892 35.83294722 -31.71577869 34.72541891 -29.625 33.0625 C-24.99320915 29.17996943 -21.03359547 24.78559833 -17.03759766 20.26782227 C-15.72975153 18.81018535 -14.36888348 17.40047309 -13 16 C-12.34 16 -11.68 16 -11 16 C-10.34 14.68 -9.68 13.36 -9 12 C-8.34 12 -7.68 12 -7 12 C-6.9175 11.4225 -6.835 10.845 -6.75 10.25 C-5.79081036 7.37243109 -4.16019805 6.0947375 -2 4 C-0.76487921 1.86690808 -0.76487921 1.86690808 0 0 Z " fill="#F9C874" transform="translate(222,102)"/>
<path d="M0 0 C1.875 1.6875 1.875 1.6875 3 4 C2.73745664 9.25086727 1.05211367 11.65204999 -2.625 15.3125 C-3.46289062 16.17488281 -4.30078125 17.03726563 -5.1640625 17.92578125 C-8.54811901 20.40089696 -10.84110999 20.85810846 -15 21 C-17.5 19.5 -17.5 19.5 -19 17 C-18.82128992 11.15755517 -17.33349908 8.58952812 -13.125 4.625 C-11.79855469 3.34496094 -11.79855469 3.34496094 -10.4453125 2.0390625 C-6.80244207 -0.99860262 -4.45166707 -1.4467918 0 0 Z " fill="#FDF0A9" transform="translate(230,35)"/>
<path d="M0 0 C4.90409461 3.31505837 9.39062155 7.66779187 12 13 C11.9375 16.25 11.9375 16.25 11 19 C8 21 8 21 4.6484375 20.9140625 C0.39948783 19.84955048 -1.32827418 18.47797307 -4.375 15.375 C-5.22835937 14.53710938 -6.08171875 13.69921875 -6.9609375 12.8359375 C-9.40291404 9.43962531 -9.8934271 7.15634299 -10 3 C-7.08291308 -1.37563038 -4.78297755 -1.41960521 0 0 Z " fill="#FDF0B1" transform="translate(221,141)"/>
<path d="M0 0 C1.875 1.0625 1.875 1.0625 3 3 C3.54132471 7.46458891 3.45973308 9.37038307 0.76953125 13.0546875 C-0.1982263 14.01322831 -1.18464183 14.95324589 -2.1875 15.875 C-2.67025391 16.3596875 -3.15300781 16.844375 -3.65039062 17.34375 C-6.60963392 20.18780127 -8.85734607 21.79006821 -13 22 C-15.8125 21 -15.8125 21 -18 19 C-18.75 15.8125 -18.75 15.8125 -18 12 C-15.98302597 8.98858473 -13.6031378 6.51055758 -11 4 C-10.154375 3.175 -9.30875 2.35 -8.4375 1.5 C-5.35647466 -0.39601559 -3.55670966 -0.54123843 0 0 Z " fill="#21A3FD" transform="translate(115,216)"/>
<path d="M0 0 C0.87591797 0.00322266 1.75183594 0.00644531 2.65429688 0.00976562 C3.52634766 -0.00634766 4.39839844 -0.02246094 5.296875 -0.0390625 C6.55467773 -0.0400293 6.55467773 -0.0400293 7.83789062 -0.04101562 C8.60544678 -0.04399658 9.37300293 -0.04697754 10.16381836 -0.05004883 C12.77793738 0.42403031 13.6466244 1.20462086 15.21679688 3.32226562 C15.71679688 6.82226562 15.71679688 6.82226562 15.21679688 10.32226562 C11.2381025 13.58509643 7.75190173 13.75473052 2.71679688 13.75976562 C1.42773438 13.77910156 0.13867188 13.7984375 -1.18945312 13.81835938 C-5.29416588 13.25173055 -6.99099015 12.351198 -9.78320312 9.32226562 C-9.64413766 1.25646885 -7.31087258 0.06190885 0 0 Z " fill="#FCE172" transform="translate(240.783203125,91.677734375)"/>
<path d="M0 0 C3.59901335 1.23289816 5.82761163 3.44377658 8.4296875 6.10546875 C8.92339844 6.57533203 9.41710937 7.04519531 9.92578125 7.52929688 C13.19523059 10.81218231 14.55579439 13.26871668 14.6796875 17.91796875 C13.1171875 20.29296875 13.1171875 20.29296875 10.6796875 21.91796875 C6.59034625 22.5307972 5.1042829 22.22814214 1.72265625 19.7578125 C0.75510176 18.80609792 -0.19654157 17.83797528 -1.1328125 16.85546875 C-1.62201172 16.38947266 -2.11121094 15.92347656 -2.61523438 15.44335938 C-6.16563541 11.83403052 -7.25449038 8.95036867 -7.3203125 3.91796875 C-5.00113475 1.18952434 -3.66411303 -0.12953935 0 0 Z " fill="#FCE585" transform="translate(112.3203125,34.08203125)"/>
<path d="M0 0 C2.08477638 1.43777681 2.81239178 2.59798239 3.875 4.875 C4.10608934 8.80351886 1.37770496 11.56146615 -1.0859375 14.421875 C-2.21902344 15.57429687 -2.21902344 15.57429687 -3.375 16.75 C-4.12523437 17.52859375 -4.87546875 18.3071875 -5.6484375 19.109375 C-8.21357651 21.17171267 -9.74747779 21.74606554 -13 22 C-15.70637529 21.02269781 -16.70256222 20.59487555 -18 18 C-18.44522292 15.06824905 -18.60919773 12.95154725 -16.96777344 10.38769531 C-15.512343 8.70392173 -13.98242095 7.16402006 -12.375 5.625 C-11.85292969 5.07972656 -11.33085937 4.53445312 -10.79296875 3.97265625 C-7.2938298 0.5253564 -5.12053514 -0.81044441 0 0 Z " fill="#24A3FD" transform="translate(29,216)"/>
<path d="M0 0 C1.875 1.0625 1.875 1.0625 3 3 C3.54132471 7.46458891 3.45973308 9.37038307 0.76953125 13.0546875 C-0.1982263 14.01322831 -1.18464183 14.95324589 -2.1875 15.875 C-2.67025391 16.3596875 -3.15300781 16.844375 -3.65039062 17.34375 C-6.61053574 20.18866799 -8.85988251 21.76565373 -13 22 C-15.70637529 21.02269781 -16.70256222 20.59487555 -18 18 C-18.44522292 15.06824905 -18.60919773 12.95154725 -16.96777344 10.38769531 C-15.512343 8.70392173 -13.98242095 7.16402006 -12.375 5.625 C-11.85292969 5.07972656 -11.33085938 4.53445312 -10.79296875 3.97265625 C-7.28708901 0.51871547 -5.12751894 -0.78828237 0 0 Z " fill="#21A0FD" transform="translate(72,216)"/>
<path d="M0 0 C0.70125 -0.01675781 1.4025 -0.03351562 2.125 -0.05078125 C2.74375 0.06910156 3.3625 0.18898438 4 0.3125 C6.77824683 4.47987025 6.36772266 7.91485061 6.375 12.8125 C6.39949219 13.68003906 6.42398438 14.54757813 6.44921875 15.44140625 C6.47861273 21.78070808 6.47861273 21.78070808 4.13671875 24.3828125 C1.50216098 25.52911003 -0.15650276 25.74996111 -3 25.3125 C-5.1241003 23.70136594 -5.91159851 22.82175057 -6.37231445 20.16772461 C-6.3693335 19.35827393 -6.36635254 18.54882324 -6.36328125 17.71484375 C-6.36263672 16.83119141 -6.36199219 15.94753906 -6.36132812 15.03710938 C-6.34521484 14.11736328 -6.32910156 13.19761719 -6.3125 12.25 C-6.31572266 11.32638672 -6.31894531 10.40277344 -6.32226562 9.45117188 C-6.24660167 0.03444817 -6.24660167 0.03444817 0 0 Z " fill="#FBDC62" transform="translate(169,10.6875)"/>
<path d="M0 0 C0.33 0 0.66 0 1 0 C1.21192221 5.19209404 0.5912689 9.126739 -1 14 C-1.495 13.01 -1.495 13.01 -2 12 C-2.4846875 12.42410156 -2.969375 12.84820312 -3.46875 13.28515625 C-4.47421875 14.16494141 -4.47421875 14.16494141 -5.5 15.0625 C-6.22960937 15.70445313 -6.95921875 16.34640625 -7.7109375 17.0078125 C-9.16024163 18.26915228 -10.62241547 19.51598011 -12.1015625 20.7421875 C-15.49564548 23.58587865 -18.34149914 26.29381337 -20.875 29.9375 C-25.38734264 36.27950486 -31.6416477 41.40293448 -39 44 C-38.34 42.68 -37.68 41.36 -37 40 C-36.34 40 -35.68 40 -35 40 C-34.73960937 39.40058594 -34.47921875 38.80117187 -34.2109375 38.18359375 C-32.90735892 35.83294722 -31.71577869 34.72541891 -29.625 33.0625 C-24.99320915 29.17996943 -21.03359547 24.78559833 -17.03759766 20.26782227 C-15.72975153 18.81018535 -14.36888348 17.40047309 -13 16 C-12.34 16 -11.68 16 -11 16 C-10.34 14.68 -9.68 13.36 -9 12 C-8.34 12 -7.68 12 -7 12 C-6.9175 11.4225 -6.835 10.845 -6.75 10.25 C-5.79081036 7.37243109 -4.16019805 6.0947375 -2 4 C-0.76487921 1.86690808 -0.76487921 1.86690808 0 0 Z " fill="#FABC4D" transform="translate(222,102)"/>
<path d="M0 0 C3.72913668 1.52209661 5.80631179 3.74032197 8.4375 6.75 C9.21867188 7.63945312 9.99984375 8.52890625 10.8046875 9.4453125 C13.2346581 12.27307189 15.6431894 15.11100636 18 18 C17.67 18.33 17.34 18.66 17 19 C11.29315614 18.73745755 8.60172024 17.42513661 4.625 13.375 C3.77164063 12.53710938 2.91828125 11.69921875 2.0390625 10.8359375 C-0.37559744 7.47761735 -0.81154996 5.09630866 -1 1 C-0.67 0.67 -0.34 0.34 0 0 Z " fill="#FBD646" transform="translate(212,143)"/>
<path d="M0 0 C0.45824037 4.42781662 0.44003582 6.397359 -2.23046875 10.0546875 C-3.1982263 11.01322831 -4.18464183 11.95324589 -5.1875 12.875 C-5.67025391 13.3596875 -6.15300781 13.844375 -6.65039062 14.34375 C-9.58769187 17.16671335 -11.86038373 18.90259726 -16 19 C-16.99 18.34 -17.98 17.68 -19 17 C-16.21641519 14.15862758 -13.42184273 11.32831845 -10.625 8.5 C-9.43390625 7.28376953 -9.43390625 7.28376953 -8.21875 6.04296875 C-7.45820312 5.27597656 -6.69765625 4.50898438 -5.9140625 3.71875 C-5.2123291 3.00654297 -4.5105957 2.29433594 -3.78759766 1.56054688 C-2 0 -2 0 0 0 Z " fill="#0E84FB" transform="translate(118,219)"/>
<path d="M0 0 C0.45824037 4.42781662 0.44003582 6.397359 -2.23046875 10.0546875 C-3.1982263 11.01322831 -4.18464183 11.95324589 -5.1875 12.875 C-5.67025391 13.3596875 -6.15300781 13.844375 -6.65039062 14.34375 C-9.58769187 17.16671335 -11.86038373 18.90259726 -16 19 C-16.99 18.34 -17.98 17.68 -19 17 C-16.21641519 14.15862758 -13.42184273 11.32831845 -10.625 8.5 C-9.43390625 7.28376953 -9.43390625 7.28376953 -8.21875 6.04296875 C-7.45820312 5.27597656 -6.69765625 4.50898438 -5.9140625 3.71875 C-5.2123291 3.00654297 -4.5105957 2.29433594 -3.78759766 1.56054688 C-2 0 -2 0 0 0 Z " fill="#0E85FB" transform="translate(75,219)"/>
<path d="M0 0 C0.99 0 1.98 0 3 0 C3 8.25 3 16.5 3 25 C-1 23 -1 23 -2 22 C-2.25035974 18.69483066 -2.18521952 15.37603959 -2.1875 12.0625 C-2.19974609 11.12986328 -2.21199219 10.19722656 -2.22460938 9.23632812 C-2.22654297 8.34494141 -2.22847656 7.45355469 -2.23046875 6.53515625 C-2.23663208 5.30357788 -2.23663208 5.30357788 -2.24291992 4.04711914 C-2 2 -2 2 0 0 Z " fill="#FDEDA4" transform="translate(165,11)"/>
<path d="M0 0 C0 4.69063247 -1.51980061 6.90299719 -4.6875 10.125 C-7.92755343 13.17240161 -11.19068675 15.71441205 -15 18 C-16.32 17.34 -17.64 16.68 -19 16 C-18.278125 15.29875 -17.55625 14.5975 -16.8125 13.875 C-14.90843614 11.98163313 -13.26820864 10.09933371 -11.5625 8 C-4.72916667 0 -4.72916667 0 0 0 Z " fill="#F8D28A" transform="translate(213,127)"/>
<path d="M0 0 C2.09523691 1.68019682 3.88902257 3.28388562 5.75 5.1875 C6.24371094 5.65736328 6.73742187 6.12722656 7.24609375 6.61132812 C10.5339949 9.9127412 11.6978042 12.36404175 12 17 C8.03467898 15.41013072 5.41225505 12.64041394 2.5 9.625 C2.02691406 9.14289062 1.55382812 8.66078125 1.06640625 8.1640625 C-0.29219978 6.77911231 -1.6461937 5.38964235 -3 4 C-4.33111297 2.66444999 -5.66351831 1.33017753 -7 0 C-4.1825879 -1.40870605 -2.98863333 -0.96917109 0 0 Z " fill="#FDEEA9" transform="translate(115,35)"/>
<path d="M0 0 C0.66 0.99 1.32 1.98 2 3 C-0.07972836 6.73556304 -2.3789686 9.70284178 -5.375 12.75 C-6.12523437 13.52859375 -6.87546875 14.3071875 -7.6484375 15.109375 C-10.22827879 17.18353311 -11.70882083 17.84991365 -15 18 C-15.99 17.34 -16.98 16.68 -18 16 C-17.31550781 15.64292969 -16.63101562 15.28585938 -15.92578125 14.91796875 C-12.18917081 12.46846845 -9.29062398 9.5055696 -6.1875 6.3125 C-5.59001953 5.70599609 -4.99253906 5.09949219 -4.37695312 4.47460938 C-2.91335815 2.98759688 -1.45603898 1.49441189 0 0 Z " fill="#0576FB" transform="translate(31,220)"/>
<path d="M0 0 C0.66 0.33 1.32 0.66 2 1 C1.5843979 6.25659697 0.08491983 8.6193925 -3.625 12.3125 C-4.88183594 13.60607422 -4.88183594 13.60607422 -6.1640625 14.92578125 C-9.50587748 17.37000129 -11.91499857 17.73270978 -16 18 C-11.86596566 13.01795861 -7.49524962 8.43340038 -2.85546875 3.91796875 C-0.93978207 2.12995862 -0.93978207 2.12995862 0 0 Z " fill="#F9C910" transform="translate(231,38)"/>
<path d="M0 0 C3.02671229 1.35473124 5.12136806 2.8739592 7.453125 5.22265625 C8.071875 5.84333984 8.690625 6.46402344 9.328125 7.10351562 C9.96234375 7.74998047 10.5965625 8.39644531 11.25 9.0625 C11.8996875 9.71283203 12.549375 10.36316406 13.21875 11.03320312 C18 15.85965402 18 15.85965402 18 17 C13.92733772 17.49475305 12.39536869 17.29352338 9.04296875 14.8046875 C8.07540232 13.84372112 7.12376389 12.86648934 6.1875 11.875 C5.69830078 11.400625 5.20910156 10.92625 4.70507812 10.4375 C1.46317599 7.11937057 0.30784718 4.61086667 0 0 Z " fill="#FACB12" transform="translate(105,39)"/>
<path d="M0 0 C0.33 0.99 0.66 1.98 1 3 C-1.56693298 5.682882 -4.15606529 8.34323642 -6.75 11 C-7.47960938 11.763125 -8.20921875 12.52625 -8.9609375 13.3125 C-9.66992188 14.034375 -10.37890625 14.75625 -11.109375 15.5 C-11.75874023 16.1703125 -12.40810547 16.840625 -13.07714844 17.53125 C-15 19 -15 19 -19 19 C-17.61314777 15.8804428 -15.99810509 13.74144201 -13.59375 11.328125 C-12.60181641 10.33232422 -12.60181641 10.33232422 -11.58984375 9.31640625 C-10.55537109 8.29353516 -10.55537109 8.29353516 -9.5 7.25 C-8.81035156 6.55261719 -8.12070312 5.85523438 -7.41015625 5.13671875 C-6.74886719 4.47800781 -6.08757813 3.81929687 -5.40625 3.140625 C-4.80103516 2.53766602 -4.19582031 1.93470703 -3.57226562 1.31347656 C-2 0 -2 0 0 0 Z " fill="#1893FC" transform="translate(31,217)"/>
<path d="M0 0 C3.10398978 -0.08710289 6.20766548 -0.14042309 9.3125 -0.1875 C10.19357422 -0.21263672 11.07464844 -0.23777344 11.98242188 -0.26367188 C13.25375977 -0.27817383 13.25375977 -0.27817383 14.55078125 -0.29296875 C15.72120972 -0.31653442 15.72120972 -0.31653442 16.9152832 -0.34057617 C19.51309337 0.08382308 20.38991018 0.96527111 22 3 C22 3.33 22 3.66 22 4 C14.08 4 6.16 4 -2 4 C-1.34 2.68 -0.68 1.36 0 0 Z " fill="#FDEFAA" transform="translate(234,92)"/>
<path d="M0 0 C0 1.65 0 3.3 0 5 C-0.66 4.34 -1.32 3.68 -2 3 C-6.58670024 7.49849446 -11.05040077 11.92194384 -15 17 C-28.14536602 30.91862285 -28.14536602 30.91862285 -34 33 C-34.99 32.67 -35.98 32.34 -37 32 C-36.443125 31.64808594 -35.88625 31.29617187 -35.3125 30.93359375 C-27.4429765 25.84233108 -21.00713506 20.64940352 -15.5703125 12.984375 C-13.30269528 10.11882887 -10.62632627 7.87658317 -7.828125 5.54296875 C-5.84478892 3.91972251 -5.84478892 3.91972251 -3.625 1.5625 C-2 0 -2 0 0 0 Z " fill="#FAC362" transform="translate(220,114)"/>
<path d="M0 0 C7.92 0 15.84 0 24 0 C22 3 22 3 19 4 C16.50382632 4.17322707 14.06005517 4.27658118 11.5625 4.3125 C10.24378906 4.34988281 8.92507812 4.38726562 7.56640625 4.42578125 C4 4 4 4 0 0 Z " fill="#F9C70A" transform="translate(232,101)"/>
<path d="M0 0 C1.32 0 2.64 0 4 0 C5.05639266 1.63150615 6.04331167 3.30810012 7 5 C8.954394 7.21460479 11.06744041 9.25736567 13.1875 11.3125 C14.02571289 12.13717773 14.02571289 12.13717773 14.88085938 12.97851562 C16.24937412 14.32363696 17.62406833 15.66246643 19 17 C18.67 17.99 18.34 18.98 18 20 C11.03337857 14.17078615 4.70002334 8.08184718 -1 1 C-0.67 0.67 -0.34 0.34 0 0 Z " fill="#FCE685" transform="translate(213,141)"/>
<path d="M0 0 C0.99 0.33 1.98 0.66 3 1 C0.52620611 5.69137341 -2.77832083 9.11145098 -6.5 12.8125 C-7.37205078 13.7087207 -7.37205078 13.7087207 -8.26171875 14.62304688 C-8.82503906 15.18701172 -9.38835937 15.75097656 -9.96875 16.33203125 C-10.73348633 17.10123901 -10.73348633 17.10123901 -11.51367188 17.88598633 C-13 19 -13 19 -16 19 C-14.68692751 16.08653407 -13.28818412 14.0549021 -10.99609375 11.8359375 C-10.42052734 11.27132812 -9.84496094 10.70671875 -9.25195312 10.125 C-8.65318359 9.5475 -8.05441406 8.97 -7.4375 8.375 C-6.24650616 7.21839849 -5.05759995 6.05964222 -3.87109375 4.8984375 C-3.34443115 4.38974121 -2.81776855 3.88104492 -2.27514648 3.35693359 C-0.8835783 2.00599895 -0.8835783 2.00599895 0 0 Z " fill="#FCDD66" transform="translate(229,36)"/>
<path d="M0 0 C3.38081181 3.38081181 3.38081181 3.38081181 3.3984375 7.37890625 C3.40230469 8.21744141 3.40617188 9.05597656 3.41015625 9.91992188 C3.39855469 10.79197266 3.38695312 11.66402344 3.375 12.5625 C3.38660156 13.43841797 3.39820313 14.31433594 3.41015625 15.21679688 C3.40628906 16.05404297 3.40242187 16.89128906 3.3984375 17.75390625 C3.39336182 18.90354858 3.39336182 18.90354858 3.38818359 20.07641602 C3 22 3 22 0 24 C0 16.08 0 8.16 0 0 Z " fill="#FAC809" transform="translate(172,11)"/>
<path d="M0 0 C5.33333333 5.33333333 10.66666667 10.66666667 16 16 C15.01 16.33 14.02 16.66 13 17 C7.94924506 13.69270649 3.48571431 8.90178574 0 4 C0 2.68 0 1.36 0 0 Z " fill="#F9C703" transform="translate(211,145)"/>
<path d="M0 0 C0.33 0 0.66 0 1 0 C1.32421875 2.140625 1.32421875 2.140625 1 5 C-0.67857475 7.15186816 -2.23446733 8.88973011 -4.1875 10.75 C-4.67025391 11.24371094 -5.15300781 11.73742187 -5.65039062 12.24609375 C-8.62352667 15.15936799 -10.81682997 16.663511 -15 17 C-11.09151881 12.30982258 -7.02043854 7.94933947 -2.63671875 3.69921875 C-0.91730963 2.08328716 -0.91730963 2.08328716 0 0 Z " fill="#0172FA" transform="translate(117,221)"/>
<path d="M0 0 C0.8203125 1.64453125 0.8203125 1.64453125 1 4 C-0.64910312 6.13537712 -2.19266364 7.84543693 -4.125 9.6875 C-4.61226562 10.18572266 -5.09953125 10.68394531 -5.6015625 11.19726562 C-8.59057536 14.12665721 -10.79023377 15.66846163 -15 16 C-10.30233025 10.33870569 -5.25276628 5.14771096 0 0 Z " fill="#0172FB" transform="translate(74,222)"/>
<path d="M0 0 C0.66 0.66 1.32 1.32 2 2 C-3.61 7.61 -9.22 13.22 -15 19 C-15.99 18.67 -16.98 18.34 -18 18 C-12 12 -6 6 0 0 Z " fill="#1C96FD" transform="translate(115,217)"/>
<path d="M0 0 C-1.3584202 3.04332765 -2.88463024 5.12309151 -5.2578125 7.453125 C-5.88300781 8.071875 -6.50820312 8.690625 -7.15234375 9.328125 C-7.80332031 9.96234375 -8.45429688 10.5965625 -9.125 11.25 C-9.78371094 11.8996875 -10.44242188 12.549375 -11.12109375 13.21875 C-12.74296643 14.81711727 -14.3693281 16.41061897 -16 18 C-16.33 17.01 -16.66 16.02 -17 15 C-14.54976242 12.49195282 -12.08852402 9.9949924 -9.625 7.5 C-8.57699219 6.42685547 -8.57699219 6.42685547 -7.5078125 5.33203125 C-6.8375 4.65527344 -6.1671875 3.97851562 -5.4765625 3.28125 C-4.85861816 2.65283203 -4.24067383 2.02441406 -3.60400391 1.37695312 C-2 0 -2 0 0 0 Z " fill="#FDE895" transform="translate(229,36)"/>
<path d="M0 0 C3.3287521 1.10958403 4.01489699 1.92544504 6.1875 4.5625 C9.90026302 8.94958964 13.89038181 12.9864508 18 17 C15 17 15 17 13.40600586 15.74658203 C12.84792236 15.17278809 12.28983887 14.59899414 11.71484375 14.0078125 C11.10189453 13.38519531 10.48894531 12.76257812 9.85742188 12.12109375 C9.22384766 11.46238281 8.59027344 10.80367187 7.9375 10.125 C6.98133789 9.14853516 6.98133789 9.14853516 6.00585938 8.15234375 C4.82201655 6.94230419 3.64127244 5.72922002 2.46459961 4.51220703 C1.32051459 3.33093305 0.16282818 2.16282818 -1 1 C-0.67 0.67 -0.34 0.34 0 0 Z " fill="#FBDA58" transform="translate(106,37)"/>
<path d="M0 0 C0.99 0 1.98 0 3 0 C2.25 4.75 2.25 4.75 0 7 C0 6.01 0 5.02 0 4 C-0.66 4 -1.32 4 -2 4 C-1.34 2.68 -0.68 1.36 0 0 Z " fill="#F9CD81" transform="translate(213,123)"/>
<path d="M0 0 C1.32 0 2.64 0 4 0 C4.66 1.65 5.32 3.3 6 5 C2.73045798 4.43628586 1.17424117 3.50037734 -1 1 C-0.67 0.67 -0.34 0.34 0 0 Z " fill="#FDEA8F" transform="translate(213,141)"/>
<path d="M0 0 C-3 2 -3 2 -6 3 C-6.99 2.01 -7.98 1.02 -9 0 C-5.93109813 -1.53445094 -3.29905734 -0.54984289 0 0 Z " fill="#F3BE6F" transform="translate(193,147)"/>
</svg>
